<svg width="480" height="480" viewBox="0 0 480 480" fill="none" xmlns="http://www.w3.org/2000/svg">
<rect width="480" height="480" rx="50" fill="#CCCCCC"/>
<path d="M382 332.5C382 363.152 357.152 388 326.5 388C295.848 388 271 363.152 271 332.5C271 301.848 295.848 277 326.5 277C357.152 277 382 301.848 382 332.5ZM285.607 332.5C285.607 355.085 303.915 373.393 326.5 373.393C349.085 373.393 367.393 355.085 367.393 332.5C367.393 309.915 349.085 291.607 326.5 291.607C303.915 291.607 285.607 309.915 285.607 332.5Z" fill="black"/>
<path d="M223 179C223 193.359 211.359 205 197 205C182.641 205 171 193.359 171 179C171 164.641 182.641 153 197 153C211.359 153 223 164.641 223 179ZM184.789 179C184.789 185.744 190.256 191.211 197 191.211C203.744 191.211 209.211 185.744 209.211 179C209.211 172.256 203.744 166.789 197 166.789C190.256 166.789 184.789 172.256 184.789 179Z" fill="black"/>
<path d="M357.5 124C360.792 124 364.051 124.664 367.081 125.951C370.111 127.239 372.851 129.124 375.136 131.494C377.422 133.864 379.206 136.67 380.382 139.745C381.559 142.82 382.104 146.101 381.984 149.391L367.895 148.878C367.946 147.481 367.714 146.089 367.215 144.783C366.715 143.478 365.958 142.286 364.988 141.28C364.017 140.274 362.854 139.473 361.568 138.927C360.281 138.38 358.898 138.098 357.5 138.098L357.5 124Z" fill="black"/>
<path d="M123.5 340C120.208 340 116.949 339.336 113.919 338.049C110.889 336.761 108.149 334.876 105.864 332.506C103.578 330.136 101.794 327.33 100.618 324.255C99.4412 321.18 98.8965 317.899 99.0162 314.609L113.105 315.122C113.054 316.519 113.286 317.911 113.785 319.217C114.285 320.522 115.042 321.714 116.012 322.72C116.983 323.726 118.146 324.527 119.432 325.073C120.719 325.62 122.102 325.902 123.5 325.902L123.5 340Z" fill="black"/>
<path d="M99 148.5C99 145.208 99.6636 141.949 100.951 138.919C102.239 135.889 104.124 133.149 106.494 130.864C108.864 128.578 111.67 126.794 114.745 125.618C117.82 124.441 121.101 123.896 124.391 124.016L123.878 138.105C122.481 138.054 121.089 138.286 119.783 138.785C118.478 139.285 117.286 140.042 116.28 141.012C115.274 141.983 114.473 143.146 113.927 144.432C113.38 145.719 113.098 147.102 113.098 148.5L99 148.5Z" fill="black"/>
<path d="M375 147.995V273.005" stroke="black" stroke-width="14.6" stroke-linecap="round"/>
<path d="M327 313L327 353" stroke="black" stroke-width="14.6" stroke-linecap="round"/>
<path d="M327 313L306 333" stroke="black" stroke-width="14.6" stroke-linecap="round"/>
<path d="M327 313L348 333" stroke="black" stroke-width="14.6" stroke-linecap="round"/>
<path d="M106 148L106 315.01" stroke="black" stroke-width="14.6" stroke-linecap="round"/>
<path d="M155 228L107 273.01" stroke="black" stroke-width="14.6" stroke-linecap="round"/>
<path d="M155 228L206 280" stroke="black" stroke-width="14.6" stroke-linecap="round"/>
<path d="M290 200L181 304" stroke="black" stroke-width="14.6" stroke-linecap="round"/>
<path d="M290 200L348 257" stroke="black" stroke-width="14.6" stroke-linecap="round"/>
<path d="M124 333H250.01" stroke="black" stroke-width="14.6" stroke-linecap="round"/>
<path d="M123 131L357.01 131" stroke="black" stroke-width="14.6" stroke-linecap="round"/>
</svg>
