<svg width="98" height="94" viewBox="0 0 98 94" fill="currentColor" xmlns="http://www.w3.org/2000/svg">
<path d="M84.509 27L70.509 14V6H84.509V27Z"/>
<path d="M88.009 50L48.509 14L9.00901 50C9.00901 50 6.87961 50.6668 5.50901 50.5C4.03283 50.3204 3.12557 49.9822 2.00901 49C1.27596 48.3552 0.911415 47.8895 0.509011 47C0.17718 46.2665 0.0473053 45.8042 0.00901121 45C-0.0383468 44.0055 0.0970101 43.4064 0.509011 42.5C0.80034 41.8591 1.50901 41 1.50901 41L45.509 1L46.509 0.5C46.509 0.5 47.8915 0 48.509 0C49.1265 0 50.509 0.5 50.509 0.5L51.509 1L95.509 41C95.509 41 96.2177 41.8591 96.509 42.5C96.921 43.4064 97.0564 44.0055 97.009 45C96.9707 45.8042 96.8408 46.2665 96.509 47C96.1066 47.8895 95.7421 48.3552 95.009 49C93.8925 49.9822 92.9852 50.3204 91.509 50.5C90.1384 50.6668 88.009 50 88.009 50Z"/>
<path fill-rule="evenodd" clip-rule="evenodd" d="M48.509 18L84.009 50.5V94H42.509V51H20.509L20.009 94H13.009V50.5L48.509 18ZM51.009 76V59H75.509V76H51.009Z"/>
</svg>
